# xmcd
#
# Track frame offsets: 
#        150
#        20785
#        48605
#        68448
#        88013
#        137468
#        158813
#
# Disc length: 2404 seconds
#
# Revision: 0
# Processed by: cddbd v1.5.2PL0 Copyright (c) Steve Scherf et al.
# Submitted via: ExactAudioCopy v0.99pb5
#
DISCID=55096207
DTITLE=Rush  - Moving Pictures - Warner Bros. 13479 (SHM)  
DYEAR=1900
DGENRE=
TTITLE0=Tom Sawyer
TTITLE1=Red Barchetta
TTITLE2=Yyz
TTITLE3=Limelight
TTITLE4=The Camera Eye
TTITLE5=Witch Hunt
TTITLE6=Vital Signs
EXTD=
EXTT0=
EXTT1=
EXTT2=
EXTT3=
EXTT4=
EXTT5=
EXTT6=
PLAYORDER=
